<?xml version="1.0" encoding="utf-8"?>
<!-- Generator: Adobe Illustrator 16.0.0, SVG Export Plug-In . SVG Version: 6.00 Build 0)  -->
<!DOCTYPE svg PUBLIC "-//W3C//DTD SVG 1.1//EN" "http://www.w3.org/Graphics/SVG/1.1/DTD/svg11.dtd">
<svg version="1.1" id="Layer_1" xmlns="http://www.w3.org/2000/svg" xmlns:xlink="http://www.w3.org/1999/xlink" x="0px" y="0px"
	 width="32px" height="32px" viewBox="0 0 32 32" enable-background="new 0 0 32 32" xml:space="preserve">
<circle fill="#FFFFFF" stroke="#000000" stroke-width="2" stroke-miterlimit="10" cx="16" cy="16" r="15"/>
<g>
	<path d="M20.266,22.463c-2.59,2.723-4.527,4.084-5.811,4.084c-0.708,0-1.306-0.363-1.793-1.087c-0.487-0.725-0.73-1.635-0.73-2.731
		c0-2.357,0.797-5.622,2.391-9.795l4.217-0.88h0.199l-1.66,5.196c-0.687,2.147-1.029,3.68-1.029,4.599
		c0,0.365,0.08,0.662,0.241,0.888c0.16,0.227,0.362,0.34,0.606,0.34c0.432,0,0.866-0.158,1.303-0.473
		c0.437-0.315,1.126-0.999,2.067-2.05V22.463z M19.934,5.563c0,2.656-0.979,3.984-2.938,3.984c-0.952,0-1.766-0.288-2.44-0.863
		c0.642-0.974,1.14-2.069,1.494-3.287c0.874,0.542,1.577,0.813,2.108,0.813C18.755,6.21,19.347,5.995,19.934,5.563z"/>
</g>
</svg>
